<svg width="22" height="22" viewBox="0 0 22 22" fill="none" xmlns="http://www.w3.org/2000/svg">
<g clip-path="url(#clip0_214_632)">
<path d="M18.7667 3.21286L12.2759 7.10734L14.6786 8.49311L14.6793 8.49203L21.8975 12.4967C22.3569 9.09893 21.2503 5.69029 18.7667 3.21286Z" fill="white"/>
<path d="M17.7495 2.31418C15.0233 0.186845 11.5143 -0.478846 8.28406 0.337935V7.93887L10.6716 6.56091L17.7495 2.31418Z" fill="white"/>
<path d="M11.3389 15.4363L4.26233 19.6952C7.03267 21.8509 10.5487 22.464 13.7183 21.6618V14.0611L11.3375 15.4342L11.3389 15.4363Z" fill="white"/>
<path d="M6.99011 0.752857C3.79328 2.00272 1.26612 4.75261 0.36377 8.18541L6.99015 11.8501C6.99011 10.6154 6.99011 1.85353 6.99011 0.752857Z" fill="white"/>
<path d="M15.0123 21.2466C18.1726 20.01 20.7188 17.2862 21.6325 13.8294L15.0123 10.1566V21.2466Z" fill="white"/>
<path d="M7.32651 13.5088L7.32401 13.5133L0.100647 9.51852C-0.352579 12.9045 0.747577 16.3138 3.24407 18.798L9.72872 14.8953L7.32651 13.5088Z" fill="white"/>
</g>
<defs>
<clipPath id="clip0_214_632">
<rect width="22" height="22" fill="white"/>
</clipPath>
</defs>
</svg>
