<svg width="48" height="48" viewBox="0 0 48 48" fill="none" xmlns="http://www.w3.org/2000/svg">
<g clip-path="url(#clip0_214_2321)">
<path d="M46.9688 15.2661H43.5938C43.0242 15.2661 42.5625 15.7278 42.5625 16.2974C42.5625 16.8669 43.0242 17.3286 43.5938 17.3286H46.9688C47.5383 17.3286 48 16.8669 48 16.2974C48 15.7278 47.5383 15.2661 46.9688 15.2661Z" fill="#FF7738"/>
<path d="M40.9697 7.53207C41.1447 7.53207 41.322 7.48745 41.4844 7.3937L44.4073 5.7062C44.9005 5.42138 45.0695 4.79073 44.7847 4.29751C44.4999 3.8042 43.8691 3.63535 43.376 3.92007L40.4532 5.60757C39.96 5.89238 39.7909 6.52304 40.0757 7.01626C40.2667 7.3471 40.6133 7.53207 40.9697 7.53207Z" fill="#FF7738"/>
<path d="M44.4071 26.8887L41.4843 25.2012C40.9912 24.9166 40.3604 25.0856 40.0756 25.5787C39.7908 26.0719 39.9598 26.7026 40.453 26.9874L43.3759 28.6749C43.5383 28.7686 43.7156 28.8132 43.8906 28.8132C44.2469 28.8132 44.5936 28.6283 44.7847 28.2974C45.0694 27.8042 44.9005 27.1735 44.4071 26.8887Z" fill="#FF7738"/>
<path d="M5.4375 16.2974C5.4375 15.7278 4.97578 15.2661 4.40625 15.2661H1.03125C0.461719 15.2661 0 15.7278 0 16.2974C0 16.8669 0.461719 17.3286 1.03125 17.3286H4.40625C4.97578 17.3286 5.4375 16.8669 5.4375 16.2974Z" fill="#FF7738"/>
<path d="M7.54691 5.60755L4.62407 3.92005C4.13085 3.63533 3.50019 3.80427 3.21538 4.29749C2.93057 4.79071 3.0996 5.42146 3.59282 5.70618L6.51566 7.39368C6.67804 7.48743 6.85541 7.53205 7.03035 7.53205C7.38669 7.53205 7.73338 7.34708 7.92444 7.01624C8.20916 6.52302 8.04022 5.89227 7.54691 5.60755Z" fill="#FF7738"/>
<path d="M6.51566 25.2014L3.59282 26.8889C3.0996 27.1737 2.93057 27.8043 3.21538 28.2975C3.40644 28.6284 3.75304 28.8134 4.10947 28.8134C4.28441 28.8134 4.46179 28.7687 4.62416 28.675L7.547 26.9875C8.04022 26.7027 8.20926 26.072 7.92444 25.5788C7.63963 25.0855 7.00879 24.9165 6.51566 25.2014Z" fill="#FF7738"/>
<path d="M31.6866 15.7723H30.7281V14.8506C30.7281 14.2811 30.2664 13.8193 29.6969 13.8193C29.1273 13.8193 28.6656 14.2811 28.6656 14.8506V15.7723H19.3345V14.8506C19.3345 14.2811 18.8728 13.8193 18.3032 13.8193C17.7337 13.8193 17.272 14.2811 17.272 14.8506V15.7723H16.3135C15.7439 15.7723 15.2822 16.2341 15.2822 16.8036C15.2822 17.3731 15.7439 17.8348 16.3135 17.8348H17.272V20.3165C17.272 22.1636 17.9913 23.9003 19.2974 25.2064C20.2139 26.123 20.7188 27.3417 20.7188 28.6379V33.1879H22.7813V28.6379C22.7813 28.0781 22.7142 27.5289 22.5858 26.9983C23.0515 27.0989 23.5256 27.1511 24 27.1511C24.4745 27.1511 24.9486 27.0989 25.4143 26.9983C25.2858 27.5289 25.2188 28.0781 25.2188 28.6379V33.1879H27.2813V28.6379C27.2813 27.3417 27.786 26.123 28.7027 25.2064C30.0089 23.9003 30.7281 22.1636 30.7281 20.3165V17.8348H31.6866C32.2561 17.8348 32.7179 17.3731 32.7179 16.8036C32.7179 16.2341 32.2561 15.7723 31.6866 15.7723ZM28.6656 20.3166C28.6656 21.6129 28.1609 22.8315 27.2443 23.7481C25.4554 25.537 22.5447 25.537 20.7558 23.7481C19.8392 22.8316 19.3345 21.6129 19.3345 20.3166V17.8349H28.6656V20.3166Z" fill="#FF7738"/>
<path d="M34.0124 29.1562C38.0066 26.0424 40.2973 21.3555 40.2973 16.2973C40.2973 11.9206 38.5863 7.81228 35.4795 4.72913C32.4034 1.67644 28.3316 0 24.0011 0C23.9584 0 23.9155 9.375e-05 23.8727 0.00046875C14.9539 0.068625 7.70001 7.3815 7.70264 16.3021C7.70404 21.3256 9.97082 25.992 13.9217 29.1047C15.0806 30.0177 15.8232 31.2985 16.034 32.7029C14.7469 33.1384 13.8175 34.3568 13.8175 35.7891C13.8175 36.6496 14.1534 37.4327 14.7003 38.0156C14.1535 38.5986 13.8175 39.3817 13.8175 40.2422C13.8175 42.0385 15.2789 43.5 17.0753 43.5H18.5666C19.0513 46.0586 21.3025 48 23.9999 48C26.6974 48 28.9486 46.0586 29.4333 43.5H30.9246C32.7209 43.5 34.1824 42.0385 34.1824 40.2422C34.1824 39.3817 33.8465 38.5986 33.2996 38.0156C33.8464 37.4327 34.1824 36.6496 34.1824 35.7891C34.1824 34.3572 33.2535 33.1391 31.9671 32.7033C32.1781 31.3031 32.9084 30.017 34.0124 29.1562ZM23.9999 45.9375C22.4462 45.9375 21.1278 44.9107 20.6877 43.5H27.3121C26.8721 44.9107 25.5537 45.9375 23.9999 45.9375ZM30.9246 41.4375H17.0753C16.4162 41.4375 15.88 40.9012 15.88 40.2422C15.88 39.5831 16.4162 39.0469 17.0753 39.0469H30.9246C31.5837 39.0469 32.1199 39.5831 32.1199 40.2422C32.1199 40.9012 31.5837 41.4375 30.9246 41.4375ZM32.1199 35.7891C32.1199 36.4481 31.5837 36.9844 30.9246 36.9844H17.0753C16.4162 36.9844 15.88 36.4481 15.88 35.7891C15.88 35.13 16.4162 34.5938 17.0753 34.5938H30.9246C31.5837 34.5938 32.1199 35.13 32.1199 35.7891ZM29.9074 32.5312H18.0944C17.8351 30.5572 16.812 28.7561 15.1981 27.4845C11.7466 24.7653 9.76636 20.6892 9.76514 16.3014C9.76289 8.50988 16.0986 2.12241 23.8885 2.06288C27.7111 2.03334 31.3134 3.50044 34.0267 6.19312C36.7403 8.88609 38.2348 12.4745 38.2348 16.2973C38.2348 20.7153 36.2336 24.8093 32.7444 27.5296C31.1886 28.7424 30.1698 30.5621 29.9074 32.5312Z" fill="#050505"/>
</g>
<defs>
<clipPath id="clip0_214_2321">
<rect width="48" height="48" fill="white"/>
</clipPath>
</defs>
</svg>
