<svg width="48" height="48" viewBox="0 0 48 48" fill="none" xmlns="http://www.w3.org/2000/svg">
<path d="M24.0004 8.75205C24.5485 8.75205 24.9928 8.30769 24.9928 7.75957C24.9928 7.21145 24.5485 6.76709 24.0004 6.76709H23.9997C23.4515 6.76709 23.0075 7.21136 23.0075 7.75957C23.0075 8.30778 23.4522 8.75205 24.0004 8.75205Z" fill="#050505"/>
<path d="M19.9401 8.75205C20.4882 8.75205 20.9326 8.30769 20.9326 7.75957C20.9326 7.21145 20.4882 6.76709 19.9401 6.76709H19.9395C19.3914 6.76709 18.9474 7.21136 18.9474 7.75957C18.9474 8.30778 19.392 8.75205 19.9401 8.75205Z" fill="#050505"/>
<path d="M28.0605 8.75205C28.6086 8.75205 29.053 8.30769 29.053 7.75957C29.053 7.21145 28.6086 6.76709 28.0605 6.76709H28.0599C27.5117 6.76709 27.0677 7.21136 27.0677 7.75957C27.0677 8.30778 27.5124 8.75205 28.0605 8.75205Z" fill="#050505"/>
<path d="M47.0075 36.0473H46.059C46.7103 35.1968 47.0978 34.1342 47.0978 32.9826V22.4531C47.0978 20.1828 45.8736 18.1929 44.0506 17.1091C45.201 16.1823 45.9383 14.7622 45.9383 13.1732C45.9383 10.3873 43.6717 8.12061 40.8857 8.12061C38.0997 8.12061 35.8331 10.3873 35.8331 13.1732C35.8331 14.7622 36.5704 16.1823 37.7209 17.1091C36.0159 18.1227 34.8346 19.929 34.6888 22.016H32.4734C30.7823 22.016 29.4065 23.3918 29.4065 25.0829C29.4065 25.4636 29.4762 25.8283 29.6035 26.165H18.3966C18.5239 25.8284 18.5938 25.4637 18.5938 25.0829C18.5938 23.3918 17.2179 22.016 15.5268 22.016H13.3114C13.1656 19.929 11.9844 18.1228 10.2793 17.1091C11.4298 16.1823 12.1671 14.7622 12.1671 13.1732C12.1671 10.3873 9.90045 8.12061 7.11447 8.12061C4.32848 8.12061 2.06183 10.3873 2.06183 13.1732C2.06183 14.7622 2.79916 16.1823 3.94962 17.1091C2.12653 18.1929 0.902256 20.1828 0.902256 22.4531V32.9825C0.902256 34.1341 1.28968 35.1968 1.94111 36.0472H0.992481C0.444361 36.0472 0 36.4916 0 37.0397C0 37.5878 0.444361 38.0322 0.992481 38.0322H4.16698V45.2033C4.16698 45.7514 4.61134 46.1958 5.15946 46.1958C5.70758 46.1958 6.15194 45.7514 6.15194 45.2033V38.0323H8.33395V42.5597C8.33395 44.5647 9.96514 46.1959 11.9701 46.1959C12.623 46.1959 13.2363 46.0228 13.7665 45.7203C13.9409 46.0054 14.2551 46.1958 14.6138 46.1958H33.3862C33.7449 46.1958 34.0592 46.0055 34.2335 45.7203C34.7637 46.0228 35.377 46.1959 36.0299 46.1959C38.0349 46.1959 39.666 44.5647 39.666 42.5597V38.0323H41.8481V45.2033C41.8481 45.7514 42.2924 46.1958 42.8405 46.1958C43.3887 46.1958 43.833 45.7514 43.833 45.2033V38.0323H47.0075C47.5556 38.0323 48 37.5879 48 37.0398C48 36.4917 47.5556 36.0473 47.0075 36.0473ZM37.818 13.1732C37.818 11.4817 39.1941 10.1056 40.8856 10.1056C42.5772 10.1056 43.9533 11.4817 43.9533 13.1732C43.9533 14.8648 42.5772 16.2409 40.8856 16.2409C39.1941 16.2409 37.818 14.8648 37.818 13.1732ZM31.3913 25.083C31.3913 24.4864 31.8767 24.001 32.4733 24.001H37.5772C38.1254 24.001 38.5697 23.5567 38.5697 23.0085C38.5697 22.4604 38.1254 22.0161 37.5772 22.0161H36.6808C36.9004 19.8897 38.7023 18.2259 40.8856 18.2259C43.2165 18.2259 45.1128 20.1222 45.1128 22.4531V30.4616H36.6584V28.15H39.0105C40.4099 28.15 41.6169 27.1855 42.0143 25.7501L42.8831 22.6109C43.0294 22.0826 42.7196 21.5359 42.1914 21.3896C41.6631 21.2434 41.1163 21.5531 40.9701 22.0814L40.1012 25.2206C39.9424 25.7943 39.5144 26.1649 39.0106 26.1649H32.4698C31.8748 26.1631 31.3913 25.6785 31.3913 25.083ZM13.3266 30.4616V28.15H34.6734V30.4616H13.3266ZM7.11447 10.1056C8.80602 10.1056 10.1821 11.4817 10.1821 13.1732C10.1821 14.8648 8.80602 16.2409 7.11447 16.2409C5.42292 16.2409 4.0468 14.8648 4.0468 13.1732C4.0468 11.4817 5.42292 10.1056 7.11447 10.1056ZM7.11447 18.226C9.29774 18.226 11.0997 19.8897 11.3192 22.016H10.4229C9.87474 22.016 9.43038 22.4603 9.43038 23.0085C9.43038 23.5566 9.87474 24.0009 10.4229 24.0009H15.5268C16.1234 24.0009 16.6088 24.4863 16.6088 25.0829C16.6088 25.6796 16.1234 26.165 15.5268 26.165H8.98962C8.4858 26.165 8.05768 25.7943 7.89898 25.2207L7.03011 22.0815C6.88385 21.5532 6.33699 21.2438 5.80881 21.3897C5.28054 21.536 4.9708 22.0827 5.11705 22.611L5.98592 25.7501C6.3831 27.1855 7.59023 28.15 8.98971 28.15H11.3417V30.4616H2.88722V22.4531C2.88722 20.1222 4.78358 18.226 7.11447 18.226ZM11.9701 44.2108C11.0597 44.2108 10.3189 43.4702 10.3189 42.5596V37.0397C10.3189 36.4916 9.87456 36.0472 9.32644 36.0472H5.95191C4.26208 36.0473 2.88722 34.6725 2.88722 32.9825V32.4466H12.3306H12.3341H12.3411C13.0477 32.4504 13.6214 33.0264 13.6214 33.7338V42.5597C13.6214 43.4702 12.8807 44.2108 11.9701 44.2108ZM32.3937 44.2108H15.6063V33.7338C15.6063 33.2771 15.5122 32.8419 15.3424 32.4466H32.6576C32.4878 32.8419 32.3937 33.2771 32.3937 33.7339V44.2108ZM38.6736 36.0473C38.1254 36.0473 37.6811 36.4917 37.6811 37.0398V42.5597C37.6811 43.4702 36.9404 44.2109 36.0299 44.2109C35.1193 44.2109 34.3786 43.4703 34.3786 42.5597V33.7339C34.3786 33.0241 34.9561 32.4466 35.666 32.4466H45.1128V32.9825C45.1128 34.6724 43.7379 36.0472 42.0481 36.0472H38.6736V36.0473Z" fill="#050505"/>
<path d="M26.0301 37.3362H24.9925V36.2986C24.9925 35.7505 24.5481 35.3062 24 35.3062C23.4519 35.3062 23.0075 35.7505 23.0075 36.2986V37.3362H21.9699C21.4218 37.3362 20.9774 37.7806 20.9774 38.3287C20.9774 38.8768 21.4218 39.3212 21.9699 39.3212H23.0075V40.3588C23.0075 40.9069 23.4519 41.3513 24 41.3513C24.5481 41.3513 24.9925 40.9069 24.9925 40.3588V39.3212H26.0301C26.5782 39.3212 27.0226 38.8768 27.0226 38.3287C27.0226 37.7806 26.5782 37.3362 26.0301 37.3362Z" fill="#FF7738"/>
<path d="M32.797 1.80469H15.203C14.6549 1.80469 14.2105 2.24905 14.2105 2.79717V12.722C14.2105 13.2701 14.6549 13.7145 15.203 13.7145H21.0749L23.3423 15.7209C23.53 15.8871 23.765 15.9701 24 15.9701C24.2349 15.9701 24.47 15.887 24.6577 15.7209L26.9251 13.7145H32.797C33.3451 13.7145 33.7895 13.2701 33.7895 12.722V2.79717C33.7895 2.24896 33.3452 1.80469 32.797 1.80469ZM31.8045 11.7295H26.5491C26.3067 11.7295 26.0728 11.8181 25.8913 11.9787L24 13.6523L22.1087 11.9787C21.9272 11.8181 21.6933 11.7295 21.4509 11.7295H16.1955V3.78965H31.8045V11.7295Z" fill="#FF7738"/>
</svg>
