<svg width="48" height="48" viewBox="0 0 48 48" fill="none" xmlns="http://www.w3.org/2000/svg">
<mask id="mask0_214_2297" style="mask-type:luminance" maskUnits="userSpaceOnUse" x="0" y="0" width="48" height="48">
<path d="M0 3.8147e-06H48V48H0V3.8147e-06Z" fill="white"/>
</mask>
<g mask="url(#mask0_214_2297)">
<path d="M35.25 25.875C35.25 32.0882 30.2132 37.125 24 37.125C17.7868 37.125 12.75 32.0882 12.75 25.875C12.75 19.6618 17.7868 14.625 24 14.625C30.2132 14.625 35.25 19.6618 35.25 25.875Z" stroke="#FF7738" stroke-width="2.5" stroke-miterlimit="10" stroke-linecap="round" stroke-linejoin="round"/>
<path d="M29.625 25.875C29.625 28.9816 27.1066 31.5 24 31.5C20.8934 31.5 18.375 28.9816 18.375 25.875C18.375 22.7684 20.8934 20.25 24 20.25C27.1066 20.25 29.625 22.7684 29.625 25.875Z" stroke="#FF7738" stroke-width="2.5" stroke-miterlimit="10" stroke-linecap="round" stroke-linejoin="round"/>
<path d="M32.4375 10.875L31.2036 7.1731C30.8207 6.02466 29.7459 5.25 28.5353 5.25H19.4647C18.2541 5.25 17.1793 6.02466 16.7964 7.1731L15.5625 10.875H5.15625C3.08512 10.875 1.40625 12.554 1.40625 14.625V39C1.40625 41.071 3.08512 42.75 5.15625 42.75H42.8437C44.9149 42.75 46.5937 41.071 46.5937 39V14.625C46.5937 12.554 44.9149 10.875 42.8437 10.875H32.4375Z" stroke="black" stroke-width="2.5" stroke-miterlimit="10" stroke-linecap="round" stroke-linejoin="round"/>
<path d="M9 5.25H7.125C6.08944 5.25 5.25 6.08944 5.25 7.125V10.875H10.875V7.125C10.875 6.08944 10.0356 5.25 9 5.25Z" stroke="black" stroke-width="2.5" stroke-miterlimit="10" stroke-linecap="round" stroke-linejoin="round"/>
<path d="M42.2812 16.5C42.2812 17.2766 41.6516 17.9062 40.875 17.9062C40.0984 17.9062 39.4688 17.2766 39.4688 16.5C39.4688 15.7234 40.0984 15.0938 40.875 15.0938C41.6516 15.0938 42.2812 15.7234 42.2812 16.5Z" fill="black"/>
<path d="M7.125 16.5H9.9375" stroke="black" stroke-width="2.5" stroke-miterlimit="10" stroke-linecap="round" stroke-linejoin="round"/>
</g>
</svg>
