<svg width="48" height="48" viewBox="0 0 48 48" fill="none" xmlns="http://www.w3.org/2000/svg">
<path d="M11.9913 24.502H6.6593" stroke="#FF7738" stroke-width="2" stroke-miterlimit="10" stroke-linecap="round" stroke-linejoin="round"/>
<path d="M10.4603 19.9595H3.09375" stroke="#FF7738" stroke-width="2" stroke-miterlimit="10" stroke-linecap="round" stroke-linejoin="round"/>
<path d="M16.8501 15.417H8.24304" stroke="#FF7738" stroke-width="2" stroke-miterlimit="10" stroke-linecap="round" stroke-linejoin="round"/>
<path d="M31.8954 19.1868V10.7476H44.9063V23.7585H33.6985" stroke="#FF7738" stroke-width="2" stroke-miterlimit="10" stroke-linejoin="round"/>
<path d="M40.5693 10.7476V15.2817H36.2323V10.7476" stroke="#FF7738" stroke-width="2" stroke-miterlimit="10" stroke-linejoin="round"/>
<path d="M31.4109 19.187V23.7585" stroke="#050505" stroke-width="2" stroke-miterlimit="10" stroke-linejoin="round"/>
<path d="M24.3798 24.5219L16.8502 24.502" stroke="#050505" stroke-width="2" stroke-miterlimit="10" stroke-linejoin="round"/>
<path d="M27.5586 16.1606L28.2612 19.1905H33.6985C34.96 19.1905 35.9825 20.2131 35.9825 21.4746C35.9825 22.7361 34.9599 23.7587 33.6985 23.7587H26.4461C25.3833 23.7587 24.461 23.0258 24.221 21.9905L23.0743 17.0451" stroke="#050505" stroke-width="2" stroke-miterlimit="10" stroke-linecap="round" stroke-linejoin="round"/>
<path d="M16.8502 24.5018V15.7565C16.8502 12.8636 19.1953 10.5186 22.0881 10.5186C24.5252 10.5186 26.6402 12.1993 27.1907 14.5733L27.5587 16.1604" stroke="#050505" stroke-width="2" stroke-miterlimit="10" stroke-linejoin="round"/>
<path d="M16.8502 24.5017V25.1832C16.8502 27.655 18.1593 29.942 20.2907 31.1938L26.123 34.6192L24.4985 44.1156C24.2434 45.6067 25.3921 46.9686 26.9049 46.9686C28.0935 46.9686 29.1093 46.1126 29.3109 44.9413L31.0884 34.6132C31.4017 32.7929 30.81 30.9339 29.5021 29.6297L24.3799 24.5218V22.4482" stroke="#050505" stroke-width="2" stroke-miterlimit="10" stroke-linejoin="round"/>
<path d="M16.8502 25.1836L14.6529 33.9782L8.4857 41.5609C7.59283 42.6587 7.78061 44.2765 8.90111 45.1407C9.94736 45.9475 11.4394 45.8078 12.3175 44.8206L18.2946 38.101C19.139 37.1517 19.792 36.0482 20.2176 34.8511L21.3057 31.7904" stroke="#050505" stroke-width="2" stroke-miterlimit="10" stroke-linejoin="round"/>
<path d="M23.0143 10.5615C20.8007 10.5615 19.0063 8.76703 19.0063 6.5535V5.03925C19.0063 2.82572 20.8008 1.03125 23.0143 1.03125C25.2279 1.03125 27.0223 2.82572 27.0223 5.03925V6.55341C27.0223 8.76703 25.2279 10.5615 23.0143 10.5615Z" stroke="#050505" stroke-width="2" stroke-miterlimit="10" stroke-linecap="round" stroke-linejoin="round"/>
<path d="M19.0062 5.60547H30.0972" stroke="#050505" stroke-width="2" stroke-miterlimit="10" stroke-linecap="round" stroke-linejoin="round"/>
</svg>
