<svg width="20" height="18" viewBox="0 0 20 18" fill="none" xmlns="http://www.w3.org/2000/svg">
<path fill-rule="evenodd" clip-rule="evenodd" d="M8.67001 17.3401C3.88764 17.3401 0 13.4524 0 8.67006C0 3.88768 3.88764 0 8.67001 0C11.0775 0 13.3223 0.959741 14.9815 2.7165C15.0654 2.81108 15.0561 2.91701 15.0024 2.99401L15.5113 3.65912C15.6083 3.60971 15.7344 3.6199 15.8111 3.74125C16.8196 5.18898 17.3402 6.89697 17.3402 8.67001C17.3401 13.4524 13.4524 17.3401 8.67001 17.3401ZM8.67001 15.5508C4.87991 15.5508 1.78928 12.4602 1.78928 8.67006C1.78928 4.87995 4.87991 1.78928 8.67001 1.78928C10.4756 1.78928 12.1836 2.48872 13.4687 3.74129C13.572 3.84325 13.5559 3.96492 13.4886 4.04676L14.1329 4.84627C14.2311 4.78878 14.367 4.79432 14.4446 4.91248C17.3689 9.36262 14.1953 15.5508 8.67001 15.5508Z" fill="white" fill-opacity="0.18"/>
<path fill-rule="evenodd" clip-rule="evenodd" d="M8.89767 13.1274C8.80009 13.1274 8.71875 13.0624 8.68623 12.981C8.66999 12.9485 7.27102 9.33732 5.10757 7.97093C4.68463 7.71067 4.35936 7.43413 4.48947 6.81599C4.61958 6.21413 5.02627 5.87253 5.75824 5.70985C7.05953 5.43331 8.45845 7.45037 8.97901 8.28C10.8008 5.62856 14.4445 1.46428 19.7474 0.976293C20.0033 0.946304 20.0978 1.3255 19.8613 1.43176C19.7799 1.46428 12.1997 4.92912 9.12536 12.9973C9.07659 13.0786 8.99525 13.1274 8.89767 13.1274Z" fill="#FF7738"/>
</svg>
