<svg width="13" height="13" viewBox="0 0 13 13" fill="none" xmlns="http://www.w3.org/2000/svg">
<path d="M6.95304 2.51979L6.42297 0L5.89289 2.51979C5.71853 3.34868 5.3068 4.10894 4.70787 4.70787C4.10894 5.3068 3.34868 5.71853 2.51979 5.89289L0 6.42297L2.51979 6.95304C3.34867 7.12741 4.10893 7.53918 4.70787 8.1381C5.3068 8.73702 5.71853 9.49725 5.89289 10.3262L6.42297 12.8459L6.95304 10.3262C7.12741 9.49725 7.53913 8.73702 8.13805 8.1381C8.73702 7.53918 9.49725 7.12741 10.3262 6.95304L12.8459 6.42297L10.3262 5.89289C9.49725 5.71853 8.73697 5.3068 8.13805 4.70787C7.53913 4.10894 7.12741 3.34868 6.95304 2.51979Z" fill="#FF7738"/>
</svg>
