<svg width="48" height="48" viewBox="0 0 48 48" fill="none" xmlns="http://www.w3.org/2000/svg">
<g clip-path="url(#clip0_214_576)">
<path d="M40.9454 7.00989L26.7836 15.5069L32.026 18.5304L32.0274 18.5281L47.7762 27.2655C48.7785 19.8522 46.3643 12.4152 40.9454 7.00989Z" fill="white"/>
<path d="M38.7261 5.04912C32.778 0.407665 25.1221 -1.04475 18.0743 0.737315V17.3212L23.2834 14.3147L38.7261 5.04912Z" fill="white"/>
<path d="M24.7393 33.6793L9.29956 42.9714C15.3439 47.6748 23.0153 49.0124 29.9308 47.262V30.6787L24.7364 33.6746L24.7393 33.6793Z" fill="white"/>
<path d="M15.2512 1.6426C8.27628 4.36958 2.76247 10.3693 0.793701 17.8591L15.2513 25.8547C15.2512 23.1608 15.2512 4.04407 15.2512 1.6426Z" fill="white"/>
<path d="M32.754 46.3562C39.6492 43.6583 45.2044 37.7153 47.1979 30.1732L32.754 22.1599V46.3562Z" fill="white"/>
<path d="M15.9849 29.4738L15.9795 29.4836L0.219416 20.7677C-0.769441 28.1552 1.6309 35.5937 7.0778 41.0137L21.2261 32.4988L15.9849 29.4738Z" fill="white"/>
</g>
<defs>
<clipPath id="clip0_214_576">
<rect width="48" height="48" fill="white"/>
</clipPath>
</defs>
</svg>
