<?xml version="1.0" encoding="UTF-8"?>
<svg version="1.1" xmlns="http://www.w3.org/2000/svg" width="289" height="88">
<path d="M0 0 C8.0090619 4.02142771 15.14760702 9.39680528 20.25 16.875 C20.25 17.865 20.25 18.855 20.25 19.875 C21.735 20.37 21.735 20.37 23.25 20.875 C27.18886606 27.40264662 27.93235742 34.28674711 27.8125 41.75 C27.80226807 42.71381592 27.79203613 43.67763184 27.78149414 44.6706543 C27.43362143 56.35937448 23.35538814 65.42850334 15.25 73.875 C5.38671906 82.83192539 -3.26942322 86.05696637 -16.375 86.1875 C-17.79619141 86.23100586 -17.79619141 86.23100586 -19.24609375 86.27539062 C-30.6651639 86.37692818 -40.69203816 81.76530607 -48.8671875 73.81640625 C-53.75 68.47276606 -53.75 68.47276606 -53.75 64.875 C-54.41 64.875 -55.07 64.875 -55.75 64.875 C-62.10633328 53.91032509 -62.8133157 40.79857854 -59.98046875 28.546875 C-59.06694842 26.17390586 -58.03125643 24.06697528 -56.75 21.875 C-56.193125 20.699375 -55.63625 19.52375 -55.0625 18.3125 C-44.04092189 0.36548584 -19.66470614 -7.87597987 0 0 Z M-17.75 -0.125 C-16.75 1.875 -16.75 1.875 -16.75 1.875 Z M-16.75 1.875 C-15.75 3.875 -15.75 3.875 -15.75 3.875 Z M-15.75 4.875 C-14.75 6.875 -14.75 6.875 -14.75 6.875 Z M-14.75 7.875 C-13.75 9.875 -13.75 9.875 -13.75 9.875 Z M-13.75 10.875 C-12.75 12.875 -12.75 12.875 -12.75 12.875 Z M-12.75 12.875 C-11.75 14.875 -11.75 14.875 -11.75 14.875 Z M-11.75 15.875 C-10.75 17.875 -10.75 17.875 -10.75 17.875 Z M-10.75 18.875 C-9.75 20.875 -9.75 20.875 -9.75 20.875 Z M-53.75 21.875 C-53.75 22.205 -53.75 22.535 -53.75 22.875 C-52.1 22.875 -50.45 22.875 -48.75 22.875 C-48.75 22.545 -48.75 22.215 -48.75 21.875 C-50.4 21.875 -52.05 21.875 -53.75 21.875 Z M-9.75 21.875 C-8.75 23.875 -8.75 23.875 -8.75 23.875 Z M-47.75 22.875 C-47.75 23.205 -47.75 23.535 -47.75 23.875 C-46.1 23.875 -44.45 23.875 -42.75 23.875 C-42.75 23.545 -42.75 23.215 -42.75 22.875 C-44.4 22.875 -46.05 22.875 -47.75 22.875 Z M16.25 22.875 C17.25 24.875 17.25 24.875 17.25 24.875 Z M-41.75 23.875 C-37.75 24.875 -37.75 24.875 -37.75 24.875 Z M-36.75 24.875 C-36.75 25.205 -36.75 25.535 -36.75 25.875 C-35.1 25.875 -33.45 25.875 -31.75 25.875 C-31.75 25.545 -31.75 25.215 -31.75 24.875 C-33.4 24.875 -35.05 24.875 -36.75 24.875 Z M-8.75 24.875 C-7.75 26.875 -7.75 26.875 -7.75 26.875 Z M-30.75 25.875 C-30.75 26.205 -30.75 26.535 -30.75 26.875 C-29.1 26.875 -27.45 26.875 -25.75 26.875 C-25.75 26.545 -25.75 26.215 -25.75 25.875 C-27.4 25.875 -29.05 25.875 -30.75 25.875 Z M-23.75 26.875 C-24.78013277 28.52321244 -25.77065076 30.19611559 -26.75 31.875 C-29.00894417 34.60897941 -31.36946679 37.24663046 -33.75 39.875 C-32.76 40.37 -32.76 40.37 -31.75 40.875 C-30.96875 42.94921875 -30.96875 42.94921875 -30.25 45.5625 C-29.86908203 46.91021484 -29.86908203 46.91021484 -29.48046875 48.28515625 C-29.23941406 49.13980469 -28.99835937 49.99445312 -28.75 50.875 C-28.09370484 52.87842734 -27.43239354 54.88031118 -26.75 56.875 C-26.42 56.215 -26.09 55.555 -25.75 54.875 C-24.77160156 55.0915625 -24.77160156 55.0915625 -23.7734375 55.3125 C-21.10607041 55.87902044 -18.43126616 56.37906656 -15.75 56.875 C-14.698125 57.101875 -13.64625 57.32875 -12.5625 57.5625 C-8.32994958 56.52787656 -6.79564936 53.60913392 -4.36328125 50.13671875 C-2.95007773 48.15549638 -1.52303985 46.5301943 0.25 44.875 C-0.245 43.885 -0.245 43.885 -0.75 42.875 C-2.01068698 39.86165063 -3.25296011 36.8409417 -4.49609375 33.8203125 C-5.50451813 31.45161474 -6.56427679 29.15820656 -7.75 26.875 C-7.75 27.865 -7.75 28.855 -7.75 29.875 C-8.65363281 29.6584375 -9.55726562 29.441875 -10.48828125 29.21875 C-12.25751953 28.80109375 -12.25751953 28.80109375 -14.0625 28.375 C-15.23425781 28.0965625 -16.40601563 27.818125 -17.61328125 27.53125 C-20.70529844 26.77260916 -20.70529844 26.77260916 -23.75 26.875 Z M11.25 28.875 C11.25 31.875 11.25 31.875 11.25 31.875 Z M5.25 35.875 C5.25 38.875 5.25 38.875 5.25 38.875 Z M-34.75 40.875 C-33.75 42.875 -33.75 42.875 -33.75 42.875 Z M-40.75 47.875 C-39.75 49.875 -39.75 49.875 -39.75 49.875 Z M-46.75 54.875 C-45.75 56.875 -45.75 56.875 -45.75 56.875 Z M-25.75 56.875 C-24.75 58.875 -24.75 58.875 -24.75 58.875 Z M-9.75 56.875 C-5.75 57.875 -5.75 57.875 -5.75 57.875 Z M-4.75 57.875 C-0.75 58.875 -0.75 58.875 -0.75 58.875 Z M0.25 58.875 C4.25 59.875 4.25 59.875 4.25 59.875 Z M-24.75 59.875 C-23.75 61.875 -23.75 61.875 -23.75 61.875 Z M5.25 59.875 C5.25 60.205 5.25 60.535 5.25 60.875 C6.9 60.875 8.55 60.875 10.25 60.875 C10.25 60.545 10.25 60.215 10.25 59.875 C8.6 59.875 6.95 59.875 5.25 59.875 Z M12.25 60.875 C16.25 61.875 16.25 61.875 16.25 61.875 Z M17.25 61.875 C21.25 62.875 21.25 62.875 21.25 62.875 Z M-23.75 62.875 C-22.75 64.875 -22.75 64.875 -22.75 64.875 Z M-22.75 64.875 C-21.75 67.875 -21.75 67.875 -21.75 67.875 Z M-21.75 67.875 C-20.75 69.875 -20.75 69.875 -20.75 69.875 Z M-20.75 70.875 C-19.75 72.875 -19.75 72.875 -19.75 72.875 Z M-19.75 72.875 C-18.75 75.875 -18.75 75.875 -18.75 75.875 Z M-18.75 75.875 C-17.75 77.875 -17.75 77.875 -17.75 77.875 Z M-17.75 78.875 C-16.75 80.875 -16.75 80.875 -16.75 80.875 Z M-16.75 81.875 C-15.75 83.875 -15.75 83.875 -15.75 83.875 Z " fill="#787878" transform="translate(60.75,2.125)"/>
<path d="M0 0 C3 1 3 1 4.14819336 2.90283203 C6.75992554 9.35310568 7.67394949 14.93529019 7.5625 21.875 C7.55226807 22.83881592 7.54203613 23.80263184 7.53149414 24.7956543 C7.18362143 36.48437448 3.10538814 45.55350334 -5 54 C-14.86328094 62.95692539 -23.51942322 66.18196637 -36.625 66.3125 C-38.04619141 66.35600586 -38.04619141 66.35600586 -39.49609375 66.40039062 C-51.00255155 66.50270523 -60.81351552 61.81596908 -69.15234375 53.9765625 C-72.77308268 50.11922083 -72.77308268 50.11922083 -74 48 C-73.85859725 44.13499136 -71.40288867 41.73677366 -69 38.875 C-68.195625 37.91464844 -67.39125 36.95429687 -66.5625 35.96484375 C-63.352914 32.25131361 -60.07626805 28.60532558 -56.75 24.99609375 C-54.95218021 23.11549325 -54.95218021 23.11549325 -54 21 C-53.34 21 -52.68 21 -52 21 C-51.54560547 22.39025391 -51.54560547 22.39025391 -51.08203125 23.80859375 C-50.66308594 25.00613281 -50.24414062 26.20367187 -49.8125 27.4375 C-49.20341797 29.22994141 -49.20341797 29.22994141 -48.58203125 31.05859375 C-47.33005708 34.16392005 -47.33005708 34.16392005 -44.71875 34.84375 C-43.8215625 34.8953125 -42.924375 34.946875 -42 35 C-40.97261719 35.17660156 -39.94523437 35.35320313 -38.88671875 35.53515625 C-37.83097656 35.70917969 -36.77523437 35.88320313 -35.6875 36.0625 C-34.61886719 36.23910156 -33.55023438 36.41570313 -32.44921875 36.59765625 C-31.64097656 36.73042969 -30.83273438 36.86320312 -30 37 C-29.7525 36.44441406 -29.505 35.88882813 -29.25 35.31640625 C-24.90401848 27.26275925 -17.66623384 20.48228848 -11.5078125 13.79296875 C-7.5027676 9.33252155 -3.74681784 4.67899716 0 0 Z M-46 37 C-45 39 -45 39 -45 39 Z M-30 37 C-26 38 -26 38 -26 38 Z M-25 38 C-21 39 -21 39 -21 39 Z M-20 39 C-16 40 -16 40 -16 40 Z M-45 40 C-44 42 -44 42 -44 42 Z M-15 40 C-15 40.33 -15 40.66 -15 41 C-13.35 41 -11.7 41 -10 41 C-10 40.67 -10 40.34 -10 40 C-11.65 40 -13.3 40 -15 40 Z M-8 41 C-4 42 -4 42 -4 42 Z M-3 42 C1 43 1 43 1 43 Z M-44 43 C-43 45 -43 45 -43 45 Z M-43 45 C-42 48 -42 48 -42 48 Z M-42 48 C-41 50 -41 50 -41 50 Z M-41 51 C-40 53 -40 53 -40 53 Z M-40 53 C-39 56 -39 56 -39 56 Z M-39 56 C-38 58 -38 58 -38 58 Z M-38 59 C-37 61 -37 61 -37 61 Z M-37 62 C-36 64 -36 64 -36 64 Z " fill="#FEFEFE" transform="translate(81,22)"/>
<path d="M0 0 C2.31 0 4.62 0 7 0 C7 2.64 7 5.28 7 8 C8.98 8 10.96 8 13 8 C13 9.98 13 11.96 13 14 C11.02 14 9.04 14 7 14 C7 18.29 7 22.58 7 27 C8.98 27 10.96 27 13 27 C13 28.65 13 30.3 13 32 C11.20866022 32.05391993 9.41686101 32.09275571 7.625 32.125 C6.62726563 32.14820313 5.62953125 32.17140625 4.6015625 32.1953125 C2 32 2 32 0 30 C-0.14507695 27.25514407 -0.18652423 24.61519457 -0.125 21.875 C-0.11597656 21.12089844 -0.10695313 20.36679687 -0.09765625 19.58984375 C-0.0740687 17.72642746 -0.03819719 15.86317407 0 14 C-1.65 14 -3.3 14 -5 14 C-4.505 14.99 -4.505 14.99 -4 16 C-3.62831004 21.57534937 -3.77457285 25.21747009 -7 30 C-10.00120793 32.50100661 -11.70659734 32.97470667 -15.625 33.3125 C-19 33 -19 33 -22 31 C-22.33 34.63 -22.66 38.26 -23 42 C-25.31 42 -27.62 42 -30 42 C-30 38.7 -30 35.4 -30 32 C-31.258125 32 -32.51625 32 -33.8125 32 C-36.20833333 32 -38.60416667 32 -41 32 C-41.33 32.33 -41.66 32.66 -42 33 C-50.63256607 33.42455243 -50.63256607 33.42455243 -54 31 C-54.33 30.34 -54.66 29.68 -55 29 C-55.33 29.99 -55.66 30.98 -56 32 C-58.31 32 -60.62 32 -63 32 C-63.33 26.06 -63.66 20.12 -64 14 C-70.4 14.2 -70.4 14.2 -72 16 C-72.23678716 18.69235776 -72.42198025 21.36498156 -72.5625 24.0625 C-72.60568359 24.82111328 -72.64886719 25.57972656 -72.69335938 26.36132812 C-72.79973633 28.24065438 -72.90039934 30.12030244 -73 32 C-75.31 32 -77.62 32 -80 32 C-80 24.08 -80 16.16 -80 8 C-77 8 -74 8 -71 8 C-69.906875 7.773125 -68.81375 7.54625 -67.6875 7.3125 C-63.47358965 6.95538895 -62.20382393 7.33014673 -59 10 C-56.32195512 13.53884503 -55.50919188 16.62094986 -55 21 C-54.566875 20.525625 -54.13375 20.05125 -53.6875 19.5625 C-50.80084804 16.88967411 -48.05900514 16.88320282 -44.3125 16.9375 C-43.10013672 16.95103516 -43.10013672 16.95103516 -41.86328125 16.96484375 C-41.24839844 16.97644531 -40.63351563 16.98804687 -40 17 C-40.495 15.515 -40.495 15.515 -41 14 C-43.41645782 13.83312552 -43.41645782 13.83312552 -46 14 C-46.66 14.66 -47.32 15.32 -48 16 C-51.625 15.625 -51.625 15.625 -55 15 C-52.60598504 9.49376559 -52.60598504 9.49376559 -50.3125 7.625 C-45.58261002 6.34665136 -41.56776053 6.31836499 -37.125 8.25 C-34.78880648 10.17392407 -34.0621784 11.19281423 -33 14 C-32.8046875 17.234375 -32.8046875 17.234375 -32.875 20.75 C-32.89304688 21.92046875 -32.91109375 23.0909375 -32.9296875 24.296875 C-32.95289063 25.18890625 -32.97609375 26.0809375 -33 27 C-32.01 27 -31.02 27 -30 27 C-30 20.73 -30 14.46 -30 8 C-27 8 -24 8 -21 8 C-20.34 7.67 -19.68 7.34 -19 7 C-13.97381517 6.6206653 -11.10111964 7.01736753 -7 10 C-6.67 9.34 -6.34 8.68 -6 8 C-4.02 8 -2.04 8 0 8 C0 5.36 0 2.72 0 0 Z M-21.25 14 C-23.61173184 16.6991221 -23.51860788 18.62370067 -23.3125 22.12109375 C-23.08193814 24.09923426 -23.08193814 24.09923426 -21.9375 26.0625 C-18.76026699 27.59987081 -16.32611047 26.8466463 -13 26 C-10.67250655 22.50875983 -10.49700684 21.10777749 -11 17 C-12.62580082 14.54047777 -12.62580082 14.54047777 -15 13 C-18.80116138 12.72924102 -18.80116138 12.72924102 -21.25 14 Z M-49 24 C-48.67 24.99 -48.34 25.98 -48 27 C-45.08347826 27.16681109 -45.08347826 27.16681109 -42 27 C-41.34 26.34 -40.68 25.68 -40 25 C-40 24.01 -40 23.02 -40 22 C-44.7897321 21.76571687 -44.7897321 21.76571687 -49 24 Z " fill="#EDEDEE" transform="translate(211,28)"/>
<path d="M0 0 C0.66 0 1.32 0 2 0 C6.14665734 10.43997652 10.11651922 20.93620144 13.9375 31.5 C14.3389624 32.60400146 14.7404248 33.70800293 15.15405273 34.84545898 C15.52473877 35.87614502 15.8954248 36.90683105 16.27734375 37.96875 C16.60984131 38.89107422 16.94233887 39.81339844 17.28491211 40.76367188 C18 43 18 43 18 45 C5.72140865 45.7595005 -3.40399136 42.74042686 -13 35 C-18.19702368 30.11423182 -18.19702368 30.11423182 -20 27 C-19.85859725 23.13499136 -17.40288867 20.73677366 -15 17.875 C-14.195625 16.91464844 -13.39125 15.95429687 -12.5625 14.96484375 C-9.352914 11.25131361 -6.07626805 7.60532558 -2.75 3.99609375 C-0.95218021 2.11549325 -0.95218021 2.11549325 0 0 Z " fill="#787878" transform="translate(27,43)"/>
<path d="M0 0 C11.11979103 -0.98502086 20.50762053 2.27996144 29.171875 9.32421875 C35.91092061 15.50167723 35.91092061 15.50167723 38 19 C37.56403451 22.2063765 36.42957467 24.00073236 34.3046875 26.390625 C33.75643311 27.01445068 33.20817871 27.63827637 32.64331055 28.28100586 C31.76799683 29.25565796 31.76799683 29.25565796 30.875 30.25 C30.2869458 30.91588135 29.6988916 31.5817627 29.09301758 32.26782227 C27.92863116 33.58553162 26.76146258 34.9007886 25.59130859 36.21337891 C23.6073381 38.44085606 21.64631313 40.68789399 19.6875 42.9375 C18.79206669 43.95868424 17.89643451 44.97969454 17 46 C14.67730104 43.67730104 14.12873616 41.96859511 13.0546875 38.87890625 C12.70019531 37.86119141 12.34570312 36.84347656 11.98046875 35.79492188 C11.61566406 34.72822266 11.25085937 33.66152344 10.875 32.5625 C10.31619141 30.96825195 10.31619141 30.96825195 9.74609375 29.34179688 C7 21.39019574 7 21.39019574 7 18 C6.34 17.67 5.68 17.34 5 17 C4.21875 14.9609375 4.21875 14.9609375 3.5 12.375 C3.24605469 11.4778125 2.99210937 10.580625 2.73046875 9.65625 C2.36888672 8.34140625 2.36888672 8.34140625 2 7 C1.60531871 5.62466887 1.20967319 4.24961358 0.8125 2.875 C0.544375 1.92625 0.27625 0.9775 0 0 Z " fill="#FEFEFE" transform="translate(43,0)"/>
<path d="M0 0 C11.05267898 1.38566034 22.0225589 3.11384173 33 5 C32.43384016 8.88350268 30.66155353 10.75770314 28 13.5625 C24.75499346 17.06342188 21.62959684 20.60285336 18.625 24.3125 C15.12464328 28.62158112 11.61535944 32.92162004 8.0625 37.1875 C7.5895752 37.7647583 7.11665039 38.3420166 6.62939453 38.93676758 C5.46385392 40.32944678 4.23678752 41.67018915 3 43 C2.34 43 1.68 43 1 43 C-5.36159784 32.02624372 -6.20274324 18.6502578 -3.08984375 6.42578125 C-2.18924984 4.1629987 -1.25721225 2.08225779 0 0 Z " fill="#FEFEFE" transform="translate(4,24)"/>
<path d="M0 0 C3 1 3 1 4.15039062 2.8984375 C6.7956097 9.41132641 7.61766736 14.99879221 7.5 22 C7.51546875 22.92039062 7.5309375 23.84078125 7.546875 24.7890625 C7.50859508 31.58374796 5.91178298 36.88459247 3 43 C-1.05713847 42.30818242 -5.11392841 41.61435939 -9.17041016 40.91870117 C-10.54954823 40.68247642 -11.92877923 40.4467935 -13.30810547 40.21166992 C-15.29419082 39.87301874 -17.2799126 39.53223748 -19.265625 39.19140625 C-20.45961914 38.98717041 -21.65361328 38.78293457 -22.88378906 38.57250977 C-25.29229412 38.13001961 -27.63753805 37.63663747 -30 37 C-26.0440771 28.11977724 -18.01202152 20.85788545 -11.5078125 13.79296875 C-7.5027676 9.33252155 -3.74681784 4.67899716 0 0 Z " fill="#787878" transform="translate(81,22)"/>
<path d="M0 0 C3.13180809 1.62390049 5.24339744 3.00266026 7.375 5.8125 C8 8 8 8 8 15 C2.39 15 -3.22 15 -9 15 C-6.56705947 19.19474873 -6.56705947 19.19474873 -3.5 19.4375 C-0.65233722 18.93915901 0.23470379 18.22984785 2 16 C3.65 16.99 5.3 17.98 7 19 C5.59505784 22.39527689 4.30238306 24.30647023 1 26 C-3.76589734 26.75346568 -7.1120308 26.45205705 -11.4375 24.25 C-14.59244514 21.47980427 -15.87591594 19.63790954 -16.1953125 15.421875 C-16.17210937 14.54015625 -16.14890625 13.6584375 -16.125 12.75 C-16.10695313 11.85796875 -16.08890625 10.9659375 -16.0703125 10.046875 C-16.03550781 9.03367187 -16.03550781 9.03367187 -16 8 C-17.65 8.33 -19.3 8.66 -21 9 C-21.33 14.28 -21.66 19.56 -22 25 C-24.31 25 -26.62 25 -29 25 C-29 17.08 -29 9.16 -29 1 C-24.05 1 -19.1 1 -14 1 C-13.67 1.66 -13.34 2.32 -13 3 C-12.34 2.505 -11.68 2.01 -11 1.5 C-7.25972687 -0.37013657 -4.06821473 -0.7244766 0 0 Z M-7.875 7.375 C-9.09486833 8.80762811 -9.09486833 8.80762811 -9 10 C-5.7 10 -2.4 10 1 10 C0.67 9.01 0.34 8.02 0 7 C-4.15476144 5.77936307 -4.15476144 5.77936307 -7.875 7.375 Z " fill="#EDEDEE" transform="translate(281,35)"/>
<path d="M0 0 C3.17714708 3.38212431 3.03634281 5.51573066 2.9375 10.0625 C0.6275 10.0625 -1.6825 10.0625 -4.0625 10.0625 C-4.7225 8.4125 -5.3825 6.7625 -6.0625 5.0625 C-8.3725 5.0625 -10.6825 5.0625 -13.0625 5.0625 C-13.3925 6.3825 -13.7225 7.7025 -14.0625 9.0625 C-13.09828125 9.36542969 -12.1340625 9.66835938 -11.140625 9.98046875 C-9.86429751 10.40278299 -8.58827131 10.82600854 -7.3125 11.25 C-6.05953125 11.65605469 -4.8065625 12.06210937 -3.515625 12.48046875 C0.23500419 14.1988 1.78047056 15.58669266 3.9375 19.0625 C4.53603879 23.25227155 4.43505673 25.26285525 2.1875 28.875 C-1.3200044 32.28507372 -4.05691352 33.35219352 -8.9375 33.375 C-13.35077278 33.26450569 -16.41357622 32.73244423 -20.0625 30.0625 C-22.50687101 26.31446445 -23.45641518 23.52687201 -23.0625 19.0625 C-20.7525 19.0625 -18.4425 19.0625 -16.0625 19.0625 C-15.7325 21.0425 -15.4025 23.0225 -15.0625 25.0625 C-13.1753125 25.371875 -13.1753125 25.371875 -11.25 25.6875 C-10.54230469 25.80351563 -9.83460937 25.91953125 -9.10546875 26.0390625 C-6.74494176 26.25827848 -6.74494176 26.25827848 -4.0625 24.0625 C-4.06759304 22.0895246 -4.06759304 22.0895246 -5.0625 20.0625 C-8.27769443 18.81139924 -11.51137377 18.09216645 -14.86328125 17.28515625 C-18.62076333 15.84914661 -19.95453868 14.44646696 -22.0625 11.0625 C-22.65587198 6.90889617 -22.54324603 4.86374338 -20.375 1.25 C-14.56111759 -4.2496185 -6.67545376 -4.22324626 0 0 Z " fill="#EDEDEE" transform="translate(126.0625,27.9375)"/>
<path d="M0 0 C2.31 0 4.62 0 7 0 C7.33 5.61 7.66 11.22 8 17 C12.58126752 18.47004053 12.58126752 18.47004053 14.76953125 17.04296875 C16.62235444 13.96669405 16.57318346 10.8105861 16.6875 7.3125 C16.72166016 6.61060547 16.75582031 5.90871094 16.79101562 5.18554688 C16.87329947 3.45758613 16.9383324 1.72881928 17 0 C19.31 0 21.62 0 24 0 C24 7.92 24 15.84 24 24 C21 24 18 24 15 24 C13.741875 24.226875 12.48375 24.45375 11.1875 24.6875 C8.08940882 25.08670957 7.10087093 25.04385693 4.125 23.75 C1.68625074 21.74161825 0.12461324 20.14416398 -0.22705078 16.9152832 C-0.21657715 16.13499756 -0.20610352 15.35471191 -0.1953125 14.55078125 C-0.18886719 13.70322266 -0.18242187 12.85566406 -0.17578125 11.98242188 C-0.15902344 11.10134766 -0.14226562 10.22027344 -0.125 9.3125 C-0.11597656 8.41982422 -0.10695312 7.52714844 -0.09765625 6.60742188 C-0.07409748 4.40467686 -0.04120329 2.20247412 0 0 Z " fill="#EDEDEE" transform="translate(226,36)"/>
</svg>
